<svg width="193" height="36" viewBox="0 0 193 36" xmlns="http://www.w3.org/2000/svg" xmlns:xlink="http://www.w3.org/1999/xlink"><title>mashable</title><defs><path id="a" d="M0 36h193V.518H0"/></defs><g fill="none" fill-rule="evenodd"><path d="M83.076.523c2.52 0 5.04.004 7.56-.002.01 4.596.006 9.19.017 13.786.906-1.12 2.01-2.103 3.346-2.677 2.283-1.04 5.026-1.06 7.313-.018 1.686.768 2.992 2.226 3.73 3.91.727 1.626 1.025 3.414 1.08 5.184.003 4.916 0 9.832 0 14.748-2.522 0-5.046.003-7.57-.002-.012-4.51.017-9.02 0-13.53-.055-1.463-.298-3.09-1.423-4.14-1.526-1.33-4.115-1.09-5.417.447-.625.725-1.06 1.648-1.054 2.62-.003 4.867.022 9.734.01 14.6-2.538.007-5.078.005-7.615.002-.005-11.643.006-23.285.02-34.93M160.115.52c2.52.01 5.038.004 7.556.003.015 10.596.03 21.193.024 31.79-.014 1.053.03 2.107-.02 3.16-2.53-.044-5.06-.007-7.59-.02-.01-11.643.02-23.288.03-34.932" fill="#FFF"/><g><mask id="b" fill="#fff"><use xlink:href="#a"/></mask><path d="M2.15 2.297c3.37-.016 6.734 0 10.1-.01.947 3.233 1.91 6.458 2.86 9.69 1.216 4.037 2.245 8.13 3.07 12.265.085.35.078.74.318 1.03.954-3.99 1.988-7.96 3.187-11.88 1.177-3.704 2.382-7.396 3.552-11.1 3.313-.006 6.627.006 9.94-.006.625 11.053 1.2 22.112 1.828 33.165-2.474.01-4.946.004-7.42.004-.368-8.783-.803-17.567-.846-26.358-.112.29-.2.585-.273.886-1.584 6.204-3.656 12.266-5.548 18.38-.684 2.183-1.368 4.364-2.057 6.544-1.988.002-3.974-.003-5.96.002-1.12-3.924-2.198-7.86-3.3-11.79-1.32-4.633-2.38-9.335-3.324-14.057-.1.877-.103 1.76-.135 2.64-.258 7.924-.67 15.84-1.096 23.757-2.35-.007-4.7.003-7.05-.006C.71 24.4 1.453 13.35 2.15 2.298M70.235 11.13c3.21-.614 6.603-.197 9.598 1.1-.3 1.752-.84 3.455-1.24 5.188-1.526-.725-3.177-1.217-4.868-1.333-.837-.04-1.726.036-2.462.472-.617.37-.97 1.158-.758 1.858.172.634.754 1.024 1.3 1.316 1.797.93 3.848 1.285 5.574 2.368 1.47.85 2.73 2.17 3.22 3.823.632 2.122.388 4.56-.897 6.397-1.056 1.502-2.697 2.503-4.435 3.033-2.465.748-5.095.772-7.633.464-1.754-.25-3.497-.71-5.072-1.534.377-1.59.814-3.166 1.193-4.757.064-.188.06-.42.2-.573 1.983 1.02 4.182 1.66 6.415 1.746.913-.027 1.92-.06 2.673-.64.653-.497.747-1.466.42-2.176-.264-.554-.823-.864-1.345-1.13-1.244-.61-2.608-.908-3.86-1.49-1.728-.775-3.393-1.905-4.35-3.58-1.107-1.955-.9-4.46.143-6.396 1.244-2.28 3.688-3.678 6.185-4.154M179.452 16.413c-1.442.903-2.198 2.584-2.396 4.225 2.972-.006 5.942 0 8.914-.003-.03-1.263-.344-2.585-1.186-3.562-1.283-1.513-3.694-1.658-5.332-.66zm-.767-5.182c2.19-.555 4.527-.58 6.72-.034 2.524.627 4.728 2.357 5.953 4.647 1.636 3.027 1.957 6.643 1.37 9.996-5.198-.043-10.396-.06-15.595-.065.064 1.36.872 2.618 2.013 3.334 1.664 1.08 3.722 1.315 5.662 1.224 1.995-.044 3.97-.403 5.866-1.018.33 1.704.67 3.407 1.007 5.112-1.996.82-4.134 1.255-6.28 1.424-3.166.282-6.497.11-9.398-1.305-2.09-.994-3.832-2.702-4.838-4.79-1.067-2.18-1.395-4.66-1.256-7.065.19-2.845 1.192-5.677 3.048-7.866 1.468-1.763 3.508-3.027 5.73-3.595zM144.248 16.7c-2.093.387-3.672 2.352-3.768 4.45-.037 1.43-.005 2.863-.01 4.296.01 1.605.916 3.162 2.296 3.982 1.395.854 3.24.8 4.662.037 1.196-.64 1.962-1.86 2.35-3.125.48-1.612.527-3.34.25-4.992-.237-1.268-.742-2.536-1.686-3.442-1.057-1.042-2.648-1.46-4.094-1.206zM132.884.523c2.516 0 5.033.007 7.55-.005.025 4.546.014 9.093.022 13.638.132-.09.27-.182.368-.315 1.454-1.85 3.805-2.8 6.112-2.957 2.33-.21 4.762.377 6.63 1.816 2.143 1.61 3.443 4.136 3.976 6.726.47 2.32.457 4.734.02 7.06-.503 2.57-1.715 5.063-3.693 6.823-1.958 1.77-4.61 2.768-7.25 2.678-2.145.027-4.346-.703-5.884-2.232-.51-.482-.89-1.07-1.3-1.63-.145 1.11-.172 2.232-.336 3.34-2.147-.038-4.295.017-6.44-.027.217-3.433.216-6.87.2-10.307 0-8.205.016-16.407.024-24.61zM48.79 24.66c-.697.245-1.386.584-1.896 1.13-.895.924-1.03 2.44-.437 3.557.418.827 1.35 1.258 2.24 1.33 2.072.208 4.296-1.398 4.393-3.55.044-1.008.013-2.02.014-3.03-1.45.01-2.924.115-4.313.564zm-8.44-11.637c2.28-1.227 4.85-1.85 7.416-2.08 2.81-.23 5.804-.095 8.325 1.298 1.804.983 3.12 2.72 3.732 4.664.476 1.468.638 3.024.62 4.565.005 3.053-.003 6.108.005 9.16.055 1.61.098 3.227.4 4.812-2.262.02-4.528.02-6.79 0-.305-.76-.316-1.63-.523-2.43-1.716 2.013-4.388 3.05-7.007 2.974-2.397.09-4.87-.903-6.36-2.817-2.432-3.052-1.972-7.963.985-10.51 2.274-1.995 5.335-2.756 8.275-3.088 1.138-.128 2.284-.177 3.43-.158.08-.962-.272-2-1.096-2.554-1.193-.843-2.732-.866-4.136-.798-2.044.173-4.08.73-5.865 1.752-.487-1.593-.924-3.2-1.41-4.79zM118.308 24.657c-.904.295-1.79.81-2.296 1.642-.534.92-.543 2.113-.053 3.057.36.664 1.047 1.107 1.782 1.248 1.99.443 4.255-.84 4.762-2.84.217-1.21.088-2.448.113-3.67-1.45.013-2.92.117-4.31.562zm-8.453-11.63c2.914-1.566 6.27-2.166 9.552-2.175 2.547.015 5.248.492 7.283 2.127 1.643 1.293 2.61 3.27 2.992 5.294.237 1.2.282 2.428.273 3.647.003 2.4.003 4.796.003 7.194-.01 2.113.015 4.244.397 6.33-2.29.013-4.582.03-6.872-.008-.126-.814-.293-1.62-.435-2.43-1.685 1.967-4.275 3.018-6.845 2.98-2.265.108-4.62-.698-6.165-2.4-2.78-2.93-2.5-8.087.47-10.786 1.926-1.804 4.546-2.62 7.098-3.05 1.576-.25 3.175-.365 4.773-.336.053-.96-.282-1.995-1.106-2.553-1.155-.803-2.63-.866-3.99-.808-2.104.143-4.19.73-6.034 1.757-.46-1.596-.91-3.195-1.395-4.784z" fill="#FFF" mask="url(#b)"/></g></g></svg>