<svg width="193" height="193" viewBox="0 0 193 193" xmlns="http://www.w3.org/2000/svg" xmlns:xlink="http://www.w3.org/1999/xlink"><title>https_window</title><defs><path id="a" d="M0 0h185v139H0V0z"/><path id="c" d="M180.605.355H2.693C1.49.355.567 1.277.567 2.482v12.056h182.165V2.482c0-1.205-.922-2.127-2.127-2.127z"/><path id="e" d="M56.847.284L20.98 36.168 6.735 21.914l-6.238 6.24L20.98 48.65 63.156 6.524 56.847.284z"/><path id="g" d="M0 123.753V.355h129.57L84.208 123.753H0z"/><path id="i" d="M0 0h182.165H0z"/><path id="k" d="M2.197 4.61c1.175 0 2.127-.953 2.127-2.128 0-1.175-.952-2.127-2.127-2.127C1.023.355.07 1.307.07 2.482c0 1.175.953 2.128 2.127 2.128z"/><path id="m" d="M2.197 4.61c1.175 0 2.127-.953 2.127-2.128 0-1.175-.952-2.127-2.127-2.127C1.023.355.07 1.307.07 2.482c0 1.175.953 2.128 2.127 2.128z"/><path id="o" d="M2.197 4.61c1.175 0 2.127-.953 2.127-2.128 0-1.175-.952-2.127-2.127-2.127C1.023.355.07 1.307.07 2.482c0 1.175.953 2.128 2.127 2.128z"/></defs><g fill="none" fill-rule="evenodd"><path fill="#FFF" d="M0 0h193v193H0z"/><g transform="translate(4 29)"><mask id="b" fill="#fff"><use xlink:href="#a"/></mask><path d="M-3.544-3.546h192.088v146.092H-3.544V-3.546z" fill="#C4E1F7" mask="url(#b)"/></g><g transform="translate(4.71 29.71)"><mask id="d" fill="#fff"><use xlink:href="#c"/></mask><path d="M-2.977-3.19h189.253v21.274H-2.977V-3.19z" fill="#FFF" mask="url(#d)"/></g><g transform="translate(66.375 74.388)"><mask id="f" fill="#fff"><use xlink:href="#e"/></mask><path d="M-3.048-3.262H66.7v55.458H-3.05V-3.262z" fill="#1485E0" mask="url(#f)"/></g><g transform="translate(4 43.893)"><mask id="h" fill="#fff"><use xlink:href="#g"/></mask><path d="M-3.686-3.19h136.8v130.488h-136.8V-3.192z" fill-opacity=".44" fill="#FFF" mask="url(#h)"/></g><g transform="translate(5.418 43.893)"><mask id="j" fill="#fff"><use xlink:href="#i"/></mask><path d="M-3.544-3.546H185.71v7.092H-3.545v-7.092z" fill="#C4E1F7" mask="url(#j)"/></g><path d="M5.418 43.893h182.165" stroke="#1485E0" stroke-width="2"/><g transform="translate(11.797 33.964)"><mask id="l" fill="#fff"><use xlink:href="#k"/></mask><path d="M-3.473-3.19h11.34V8.155h-11.34V-3.19z" fill="#FFF" mask="url(#l)"/></g><path d="M13.994 38.574c1.175 0 2.127-.953 2.127-2.128 0-1.175-.95-2.127-2.126-2.127-1.174 0-2.126.95-2.126 2.126 0 1.175.952 2.128 2.126 2.128z" stroke="#1485E0" stroke-width="2"/><g transform="translate(19.594 33.964)"><mask id="n" fill="#fff"><use xlink:href="#m"/></mask><path d="M-3.473-3.19h11.34V8.155h-11.34V-3.19z" fill="#FFF" mask="url(#n)"/></g><path d="M21.79 38.574c1.176 0 2.128-.953 2.128-2.128 0-1.175-.952-2.127-2.127-2.127-1.173 0-2.125.95-2.125 2.126 0 1.175.952 2.128 2.126 2.128z" stroke="#1485E0" stroke-width="2"/><g transform="translate(27.39 33.964)"><mask id="p" fill="#fff"><use xlink:href="#o"/></mask><path d="M-3.473-3.19h11.34V8.155h-11.34V-3.19z" fill="#FFF" mask="url(#p)"/></g><path d="M29.588 38.574c1.175 0 2.127-.953 2.127-2.128 0-1.175-.952-2.127-2.127-2.127-1.174 0-2.126.95-2.126 2.126 0 1.175.952 2.128 2.126 2.128z" stroke="#1485E0" stroke-width="2"/><path d="M4 29h185v139H4V29z" stroke="#1485E0" stroke-width="4"/></g></svg>