<svg width="211" height="32" viewBox="0 0 211 32" xmlns="http://www.w3.org/2000/svg"><title>fastCompany</title><g fill="#FFF" fill-rule="evenodd"><path d="M100.16 9.025c0 4.187-.423 17.17-.423 17.17 0 2.514.843 3.63 3.23 3.63v1.118H93.56v-1.117c2.387 0 3.65-1.117 3.65-3.63l.843-21.22c-.702-1.675-1.404-2.233-3.23-2.373v-.977h7.162l7.582 19.823 7.723-19.824h6.46v.977c-1.825 0-2.81.838-2.81 2.792l.844 20.52c0 3.073.56 3.91 3.09 3.91v1.118H114.06v-1.117c2.107 0 3.09-.698 2.95-3.91 0 0-.422-14.378-.562-16.89l-5.196 14.24c-.702 1.814-1.404 3.908-1.966 6.14l-1.684.14c-.422-1.534-1.545-4.326-1.545-4.326s-4.354-12.146-5.898-16.195M91.313 31.083c-.563-.14-1.124-.14-1.686-.14-1.123 0-3.088.558-5.476.558-9.127 0-15.867-5.444-15.867-15.495 0-8.516 6.32-15.077 16.01-15.077 2.246 0 4.773.418 6.88 1.256.42-.42.56-.698.982-1.117h.842c-.14 1.536-.702 6.562-.702 6.562h-.843c-.56-2.933-2.106-4.887-7.02-4.887-5.898 0-11.234 4.606-11.234 13.122 0 9.633 5.476 13.822 11.514 13.822 3.933 0 6.32-2.235 7.865-5.026l.982.42-2.247 6.003M64.773 7.07h-.983c-.14-2.653-.984-3.49-3.09-3.49h-4.07v21.918c0 3.63.7 4.328 3.088 4.328v1.117H49.186v-1.117c2.387 0 3.09-.698 3.09-4.468V3.58h-4.073c-2.668 0-3.09.7-3.792 3.49h-.98l.7-6.282.703.14c.28.698.843.698 2.528.698h13.62c2.53 0 3.09 0 3.653-.838h.843l-.703 6.282"/><path d="M35.003 31.64c-1.965 0-3.51-.278-4.633-.697-1.123-.28-1.966-.698-2.387-.977-.56.558-.983 1.257-.983 1.257l-.843-.28.702-6.56.982.138c.562 3.072 2.668 5.306 7.022 5.306 3.37 0 5.616-2.792 5.616-5.863 0-2.514-.982-3.77-4.353-6.282-1.124-.697-2.106-1.256-2.95-1.954-3.09-1.954-5.053-4.188-5.053-7.818 0-4.19 3.51-6.98 8.144-6.98 2.668 0 4.352.837 4.914 1.116l.983-1.116.703.14-.703 6.002-.983-.14c0-2.79-1.684-4.048-4.493-4.048-2.67 0-4.635 1.397-4.635 4.05 0 2.372 1.825 3.908 3.932 5.304 1.123.698 1.966 1.256 2.808 1.814 4.915 3.49 6.038 5.725 6.038 9.075 0 4.887-3.792 8.516-9.83 8.516M18.996 7.07h-1.123c0-2.513-1.124-3.49-3.37-3.49h-6.32v11.03h4.073c2.106 0 2.527-1.118 2.808-2.932h.983v7.817h-.983c-.28-2.094-.702-2.93-2.95-2.93h-3.93v9.35c0 3.492.843 3.91 3.088 3.91v1.118H.602v-1.117c2.667 0 3.088-.698 3.088-3.91V5.396c0-1.955-.842-2.793-3.09-2.793v-.977h14.604c2.528 0 3.09-.14 3.51-.978h.984l-.702 6.422M170.51 8.745v16.753c0 3.63.842 4.328 3.09 4.328v1.117h-16.57v-1.117c1.263 0 2.387-.42 2.387-1.256 0-.558-.14-1.536-.422-2.514l-1.264-4.048h-9.266c-.14.558-1.826 5.166-1.826 6.422 0 1.117 1.265 1.396 2.106 1.396v1.117h-7.722v-1.117c1.403 0 2.527-.14 3.51-3.072L151.693 4c-.42-.98-.984-1.257-1.966-1.397v-.977h6.318l7.583 23.872c.7 2.514 1.403 3.77 2.527 4.328 1.685-.558 2.105-1.117 2.105-4.328V5.395c-1.263-1.676-1.403-2.792-3.79-2.792v-.977h7.16l11.796 19.963V6.372c0-3.072-.702-3.77-3.09-3.77v-.977h15.73v.977c-.985 0-1.828.418-1.828 1.396 0 .697.282 1.395.562 2.233l4.494 9.632 4.354-9.354c.7-1.255.84-1.953.84-2.65 0-.84-.56-1.257-1.824-1.257v-.977h7.442v.977c-1.825 0-2.95 1.676-3.79 3.63L200.56 17.96v7.678c0 3.35.842 4.188 3.09 4.188v1.117h-10.673v-1.117c2.247 0 3.09-.838 3.09-4.188v-6.56l-6.18-12.985c-1.123-2.513-1.544-3.072-2.246-3.49-1.403.558-1.824 1.536-1.824 3.77v21.5s.14 1.674.28 3.628l-1.825.14-13.76-22.895zM152.956 7.35l-3.93 12.703h8.143L152.957 7.35z"/><path d="M135.545 20.053h-2.106v6.003c0 3.072.84 3.77 3.228 3.77v1.117h-10.812v-1.117c2.247 0 3.09-.838 3.09-3.91V6.233c0-3.072-.843-3.63-3.09-3.63v-.977H134c7.864 0 12.497 2.373 12.497 8.794 0 6.702-5.616 9.633-10.952 9.633zM134.14 3.58h-.7v14.38h1.263c4.633 0 7.02-2.095 7.02-7.4s-2.105-6.98-7.582-6.98zM86.54 25.358c-5.338 0-8.99-3.77-8.99-9.213 0-5.165 3.792-9.214 8.99-9.214 5.053 0 8.845 3.91 8.845 9.215 0 5.165-3.933 9.213-8.846 9.213zm0-16.752c-3.653 0-4.916 3.49-4.916 7.54 0 3.77 1.123 7.538 4.915 7.538 3.65 0 4.773-3.77 4.773-7.68 0-3.768-1.404-7.398-4.774-7.398zM24.754 23.684v-.978c1.403 0 1.684-.42 1.684-.837 0-.56-.14-.98-.28-1.397 0 0-.28-1.118-.563-1.956H20.12l-.563 1.816c-.14.418-.28.838-.28 1.396 0 .557.562.976 1.405.976v.978h-5.478v-.978c1.404 0 1.967-.42 2.528-1.955l4.213-12.563c-.14-.558-.562-.978-1.404-.978v-.977h4.494c3.65 10.61 4.634 13.402 4.634 13.402.702 2.373 1.404 3.07 2.528 3.07v.98h-7.442zm-1.967-13.542l-2.105 6.84h4.352l-2.247-6.84z"/></g></svg>