<svg width="167" height="39" viewBox="0 0 167 39" xmlns="http://www.w3.org/2000/svg"><title>recode</title><g stroke="#FFF" fill="#FFF" fill-rule="evenodd"><path d="M17.988 9.816l.072 22.706 3.945-.036.905-.725-.072-14.617s.027-1.086 2.05-2.225c2.625-1.478 4.208-1.446 4.208-1.446s1.978 2.366 2.066-.624c.092-3.152-.092-3.052-1.696-3.168-.97-.065-2.765.07-4.793 1.475-.62.43-1.835.257-1.835.257V9.925l-4.85-.11zM51.147 38.227l4.862.05L68.702 1.55h-5.016l-12.54 36.677zM70.446 11.392l-4.103 12.6s-.26 3.057 2.165 5.306c2.662 2.468 3.984 2.976 5.215 3.012 1.23.037 4.7.356 5.812-.426.706-.497 1.896-1.43 1.896-1.43l-1.666-3.417s-2.024 1.604-4.74.842c-2.713-.762-3.292-3.628-3.292-3.628s-.688-4.715.108-6.275c.797-1.56 1.86-2.764 2.838-3.236.977-.47 2.06-.664 2.962-.043 1.02.7 1.507 1.432 1.507 1.432l2.166-3.95s-.012.695-1.89-.96c-1.136-1-7.245-1.963-8.977.172zM93.52 9.78s-3.186-.87-6.95 3.41c-3.764 4.28-3.72 13.55.652 17.337 4.19 3.633 9.223 3.122 13.028.218 3.916-2.99 3.62-14.8.652-18.136-2.968-3.338-7.383-2.83-7.383-2.83zm2.757 5.97s-2.39-2.684-5.067-.145c-2.678 2.54-1.396 9.667-.58 10.446 1.225 1.17 3.77 2.967 5.864.364 1.81-2.25 1.81-8.85-.217-10.664zM155.478 9.78l11.51 11.39-11.438 11.026-.072-7.037 4.343-3.918-4.27-4.426-.072-7.037zM12.994 9.816L1.39 21.323 12.648 32.64l.072-6.96-4.403-4.272 4.662-4.8.014-6.792zM50.155 22.67s.745-2.547 1.22-4.074c.648-2.087.43-3.23-.714-5.167-1.337-2.268-4.407-3.36-5.492-3.505-1.086-.146-4.67-.073-5.827.507s-4.56 3.59-5.138 7.073c-.58 3.483.296 9.232 1.124 10.593 1.12 1.843 3.47 3.808 6.076 4.17 2.606.364 2.163.12 5.138-.035.575-.03.758-1.273 1.435-2.693.645-1.283 1.25-3.046 1.25-3.046s-1.936 1.46-3.297 1.896c-.624.2-3.185.36-4.126-.33-.94-.688-2.078-2.335-2.356-3.08-.47-1.265-.36-2.324-.36-2.324l11.07.015zm-11.14-3.242h9.048s.108-2.938-1.194-4.135c-1.304-1.197-1.666-1.233-2.716-1.378-1.05-.146-2.388.108-2.895.544-.508.434-1.05.506-1.63 1.486-.58.98-.615 3.482-.615 3.482zM121.314 1.074l5.862.145.218 31.846-6.008.073-.072-2.323s-.797 3.845-8.47 2.032c-7.672-1.815-6.152-16.26-3.33-20.176 2.824-3.917 9.483-2.32 10.135-1.886.65.435 1.593 1.523 1.593 1.523l.07-11.236zm-7.31 15.815s-.728.782-.83 2.79c-.116 2.287-.036 5.372 1.408 7.075 2.46 2.902 5.48.178 6.008-.798.724-1.342 1.028-7.987-.68-9.54-2.854-2.577-4.224-1.287-5.907.472zM137.178 22.26l13.262.026s.874-5.044-2.93-9.715c-2.01-2.47-5.447-3.125-8.217-2.73-3.438.488-4.816 2.11-5.85 3.595-1.178 1.69-2.34 12.286.99 15.522 4.003 3.89 6.836 4.527 11.823 2.658 2.133-.8 3.533-2.916 3.533-2.916l-2.593-2.467s-1.722 2.19-5.052 2.19c-3.625-.24-5.455-3.975-4.967-6.162zm-.297-3.268h8.967s.08-5-4.484-5c-5.212-.004-4.482 5-4.482 5z"/></g></svg>