<svg width="193" height="193" viewBox="0 0 193 193" xmlns="http://www.w3.org/2000/svg" xmlns:xlink="http://www.w3.org/1999/xlink"><title>coffee</title><defs><ellipse id="a" cx="54.144" cy="53.973" rx="53.656" ry="53.728"/><ellipse id="c" cx="54.144" cy="53.973" rx="53.656" ry="53.728"/><ellipse id="d" cx="54.144" cy="53.973" rx="53.656" ry="53.728"/><ellipse id="f" cx="54.144" cy="53.973" rx="53.656" ry="53.728"/><ellipse id="h" cx="54.144" cy="53.973" rx="53.656" ry="53.728"/></defs><g fill="none" fill-rule="evenodd"><path fill="#FFF" d="M0 0h193v193H0z"/><path d="M89.222 179.654c-1.71.367-3.422.49-5.133.612-.734 0-1.468.122-2.2.122M59.156 174.88c-22.245-12.116-30.434-40.02-18.334-62.295 12.1-22.275 39.967-30.475 62.21-18.358 22.246 12.116 30.435 40.02 18.335 62.295-5.5 10.036-14.178 17.257-24.078 21.05" stroke="#1485E0" stroke-width="2"/><path d="M162.067 37.072l-13.81 13.83c-2.813 2.814-7.457 2.814-10.39 0l-6.967-6.977c-2.81-2.815-2.81-7.465 0-10.403l13.81-13.83c2.812-2.814 7.457-2.814 10.39 0l6.967 6.977c2.81 2.814 2.81 7.464 0 10.402z" stroke="#1485E0" stroke-width="4" fill="#FFF"/><ellipse stroke="#1485E0" stroke-width="4" fill="#FFF" cx="98.144" cy="88.107" rx="64.167" ry="64.254"/><g transform="translate(44 34.134)"><mask id="b" fill="#fff"><use xlink:href="#a"/></mask><ellipse stroke="#1485E0" stroke-width="2" fill="#C4E1F7" mask="url(#b)" cx="54.144" cy="53.973" rx="51.944" ry="52.015"/></g><g transform="translate(44 34.134)"><mask id="e" fill="#fff"><use xlink:href="#d"/></mask><path d="M38.378 5.752c-6.356 11.872 16.5 17.257 8.31 32.31C38.257 53.607 6.97 50.425 1.47 60.705c-3.18 5.875.12 13.83 10.876 18.97 20.534 9.914 45.59 1.47 56.712-18.97C80.3 39.9 74.066 14.93 53.9 2.937c-.122.123-10.633-6.364-15.522 2.815z" transform="translate(48.89 18.358)" mask="url(#e)" stroke="#1485E0" stroke-width="2" fill="#FFF"/></g><g transform="translate(44 34.134)"><mask id="g" fill="#fff"><use xlink:href="#f"/></mask><ellipse stroke="#1485E0" stroke-width="2.03" mask="url(#g)" cx="55" cy="53.973" rx="52.067" ry="52.137"/></g><g transform="translate(44 34.134)"><mask id="i" fill="#fff"><use xlink:href="#h"/></mask><path d="M21.756 138.3h-145.2V-74.658H99.978L21.756 138.3z" opacity=".44" fill="#FFF" mask="url(#i)"/></g></g></svg>