<svg width="193" height="193" viewBox="0 0 193 193" xmlns="http://www.w3.org/2000/svg" xmlns:xlink="http://www.w3.org/1999/xlink"><title>clock</title><defs><ellipse id="a" cx="49.587" cy="49.286" rx="48.538" ry="48.629"/><ellipse id="c" cx="49.587" cy="49.286" rx="48.538" ry="48.629"/><ellipse id="e" cx="49.587" cy="49.286" rx="48.538" ry="48.629"/><ellipse id="f" cx="49.587" cy="49.286" rx="48.538" ry="48.629"/><ellipse id="h" cx="49.587" cy="49.286" rx="48.538" ry="48.629"/><ellipse id="j" cx="49.587" cy="49.286" rx="48.538" ry="48.629"/><ellipse id="l" cx="49.587" cy="49.286" rx="48.538" ry="48.629"/><ellipse id="m" cx="49.587" cy="49.286" rx="48.538" ry="48.629"/><ellipse id="o" cx="49.587" cy="49.286" rx="48.538" ry="48.629"/><ellipse id="p" cx="49.587" cy="49.286" rx="48.538" ry="48.629"/><ellipse id="r" cx="48.587" cy="49.286" rx="48.538" ry="48.629"/></defs><g fill="none" fill-rule="evenodd"><path fill="#FFF" d="M0 0h193v193H0z"/><ellipse stroke="#1485E0" stroke-width="2" cx="90.394" cy="28.943" rx="26.237" ry="26.286"/><path stroke="#1485E0" stroke-width="2" fill="#FFF" d="M85.41 53.257h10.494v15.77H85.41z"/><ellipse stroke="#1485E0" stroke-width="4.182" fill="#C4E1F7" cx="90.394" cy="124.886" rx="60.344" ry="60.457"/><g transform="translate(40.806 75.6)"><mask id="b" fill="#fff"><use xlink:href="#a"/></mask><ellipse stroke="#1485E0" stroke-width="2" fill="#FFF" mask="url(#b)" cx="49.587" cy="49.286" rx="47.226" ry="47.314"/></g><g transform="translate(40.806 75.6)"><mask id="d" fill="#fff"><use xlink:href="#c"/></mask><ellipse stroke="#FFF" fill="#FFF" mask="url(#d)" cx="49.587" cy="49.286" rx="34.108" ry="34.171"/></g><g transform="translate(40.806 75.6)"><mask id="g" fill="#fff"><use xlink:href="#f"/></mask><path d="M49.587 49.286l-20.99-21.03" stroke="#1485E0" stroke-width="2" mask="url(#g)"/></g><g transform="translate(40.806 75.6)"><mask id="i" fill="#fff"><use xlink:href="#h"/></mask><path d="M49.85 49.943H80.02" stroke="#1485E0" stroke-width="2" mask="url(#i)"/></g><g transform="translate(40.806 75.6)"><mask id="k" fill="#fff"><use xlink:href="#j"/></mask><path d="M65.33 34.83L49.586 49.285" stroke="#1485E0" stroke-width="2" mask="url(#k)"/></g><g transform="translate(40.806 75.6)"><mask id="n" fill="#fff"><use xlink:href="#m"/></mask><ellipse stroke="#1485E0" stroke-width="2" fill="#FFF" mask="url(#n)" cx="49.587" cy="49.286" rx="3.935" ry="3.943"/></g><g transform="translate(40.806 75.6)"><mask id="q" fill="#fff"><use xlink:href="#p"/></mask><g mask="url(#q)" stroke="#1485E0"><path d="M49.587 17.743V5.913M45.652 11.434l-.525-5.257M41.716 11.96l-1.05-5.126M37.912 13.01l-1.706-4.993M34.108 14.457l-2.1-4.73M30.566 16.297l-2.624-4.6M27.286 18.4l-3.148-4.206M24.138 20.897l-3.41-3.81M21.383 23.79l-3.936-3.55M18.89 26.943l-4.33-3.154M16.66 30.23L12.2 27.6M14.955 33.777L10.1 31.674M13.512 37.457L8.527 35.88M12.462 41.4l-5.116-1.183M11.806 45.343l-5.247-.526M18.103 49.286H6.297M11.806 53.23l-5.247.524M12.462 57.17l-5.116 1.184M13.512 61.114L8.527 62.69M14.955 64.794L10.1 66.897M16.66 68.343L12.2 70.97M18.89 71.63l-4.33 3.153M21.383 74.783l-3.936 3.548M24.138 77.674l-3.41 3.812M27.286 80.17l-3.148 4.207M30.566 82.274l-2.624 4.6M34.108 84.114l-2.1 4.732M37.912 85.56l-1.706 4.994M41.716 86.61l-1.05 5.127M45.652 87.137l-.525 5.257M49.587 80.83v11.827M53.654 87.137l.524 5.257M57.59 86.61l1.05 5.127M61.394 85.56l1.574 4.994M65.067 84.114l2.23 4.732M68.61 82.274l2.622 4.6M72.02 80.17l3.017 4.207M75.037 77.674l3.54 3.812M77.923 74.783l3.935 3.548M80.415 71.63l4.198 3.153M82.645 68.343l4.46 2.628M84.35 64.794l4.854 2.103M85.794 61.114l4.984 1.577M86.843 57.17l5.116 1.184M87.5 53.23l5.246.524M81.07 49.286h11.807M87.5 45.343l5.246-.526M86.843 41.4l5.116-1.183M85.794 37.457l4.984-1.577M84.35 33.777l4.854-2.103M82.645 30.23l4.46-2.63M80.415 26.943l4.198-3.154M77.923 23.79l3.935-3.55M75.037 20.897l3.54-3.81M72.02 18.4l3.017-4.206M68.61 16.297l2.622-4.6M65.067 14.457l2.23-4.73M61.394 13.01l1.574-4.993M57.59 11.96l1.05-5.126M53.654 11.434l.524-5.257"/></g></g><g transform="translate(41.806 75.6)"><mask id="s" fill="#fff"><use xlink:href="#r"/></mask><path d="M7.92 161.657h-155.845V-67.03H91.877L7.92 161.658z" opacity=".44" fill="#FFF" mask="url(#s)"/></g><g stroke="#1485E0"><path d="M102.725 36.17H79.637c-3.018 0-5.904.527-5.904 3.68v14.72h34.108V39.85c-.13-3.153-2.098-3.68-5.115-3.68z" stroke-width="4" fill="#FFF"/><path d="M78.587 42.086h28.86M78.587 47.343h28.86" stroke-width="2" stroke-dasharray="2,2"/></g></g></svg>