<svg width="218" height="31" viewBox="0 0 218 31" xmlns="http://www.w3.org/2000/svg"><title>techCrunch</title><g fill="#FFF" fill-rule="evenodd"><path d="M81.93 12.112v13.722h-4.97V12.112h-5.02V7.745h15.013v4.367H81.93zM92.458 15.42c-1.05 0-1.64.723-1.793 2.067h3.844c-.233-1.37-.694-2.067-2.052-2.067m6.098 4.96h-7.89c.153 1.5 1.023 2.17 2.28 2.17 1.177 0 2.152-.257 3.484-.955l1.766 2.973c-1.664.98-3.38 1.55-5.482 1.55-4.048 0-6.276-2.895-6.276-7.056 0-4.675 2.612-7.08 6.148-7.08 3.69 0 5.995 2.456 5.995 7.494 0 .39 0 .673-.024.905M107.135 26.117c-3.945 0-6.302-2.532-6.302-7.105 0-4.16 2.1-7.028 6.404-7.028 2.537 0 3.997 1.188 5.176 3.1l-3.176 2.428c-.64-1.188-1.078-1.757-2.075-1.757-1.18 0-1.77 1.19-1.77 3.334 0 2.145.642 3.254 1.897 3.254.87 0 1.484-.49 2.33-1.757l2.92 2.3c-1.562 2.326-3.023 3.23-5.405 3.23M122.862 25.833v-7.7c0-1.757-.59-2.222-1.537-2.222-.974 0-1.563.466-1.563 2.17v7.753h-4.61V8.857l4.61-1.86v6.174c.845-.645 1.793-1.187 3.382-1.187 2.947 0 4.356 1.99 4.356 5.555v8.295h-4.638zM138.538 26.117c-5.33 0-8.173-3.98-8.173-9.328 0-5.815 3.382-9.328 8.2-9.328 4.406 0 6.148 1.91 7.377 5.323l-4.508 1.782c-.642-1.68-1.256-2.74-2.896-2.74-2.074 0-2.97 2.094-2.97 4.962 0 2.764.87 4.96 3.022 4.96 1.562 0 2.228-.853 3.2-2.558l4.203 2.248c-1.204 2.378-3.203 4.677-7.455 4.677M157.337 17.383c-.59-.646-1.253-1.136-2.15-1.136-1.13 0-1.82.542-1.82 2.195v7.39h-4.612V12.268h4.61v.982c.796-.776 1.693-1.267 2.872-1.267.972 0 1.64.232 2.177.568l-1.077 4.833zM168.3 25.833v-.905c-.82.646-1.792 1.19-3.354 1.19-2.947 0-4.356-1.99-4.356-5.557v-8.293h4.637v7.7c0 1.756.59 2.223 1.537 2.223.948 0 1.537-.467 1.537-2.172v-7.75h4.638v13.565H168.3zM183.977 25.833v-7.7c0-1.757-.59-2.222-1.537-2.222-.974 0-1.564.466-1.564 2.17v7.753h-4.61V12.267h4.61v.904c.846-.645 1.793-1.187 3.383-1.187 2.946 0 4.354 1.99 4.354 5.555v8.295h-4.637zM197.602 26.117c-3.945 0-6.302-2.532-6.302-7.105 0-4.16 2.1-7.028 6.404-7.028 2.538 0 3.998 1.188 5.176 3.1l-3.176 2.428c-.64-1.188-1.077-1.757-2.075-1.757-1.18 0-1.77 1.19-1.77 3.334 0 2.145.64 3.254 1.896 3.254.87 0 1.485-.49 2.33-1.757l2.922 2.3c-1.563 2.326-3.024 3.23-5.406 3.23M213.33 25.833v-7.7c0-1.757-.59-2.222-1.537-2.222-.975 0-1.564.466-1.564 2.17v7.753h-4.612V8.857l4.61-1.86v6.174c.846-.645 1.794-1.187 3.383-1.187 2.948 0 4.357 1.99 4.357 5.555v8.295h-4.638zM0 0v10.333h10.246V31H20.49V10.333h10.247V0H0zM40.982 20.667V10.333H30.737V31h30.737V20.667H40.982zM40.982 10.333h20.492V0H40.982v10.333z"/></g></svg>