<svg width="95" height="43" viewBox="0 0 95 43" xmlns="http://www.w3.org/2000/svg"><title>tnw</title><defs><linearGradient x1="8.801%" y1="26.504%" x2="38.99%" y2="40.619%" id="a"><stop stop-color="#DEDEDE" offset="0%"/><stop stop-color="#FFF" offset="75%"/></linearGradient><linearGradient x1="-4.9%" y1="41.386%" x2="87.084%" y2="60.335%" id="b"><stop stop-color="#DEDEDE" offset="0%"/><stop stop-color="#FFF" offset="75%"/></linearGradient><linearGradient x1="10.153%" y1="54.079%" x2="106.954%" y2="38.049%" id="c"><stop stop-color="#FFF" offset="0%"/><stop stop-color="#FFF" offset="70%"/><stop stop-color="#DEDEDE" offset="100%"/></linearGradient></defs><g fill="none" fill-rule="evenodd"><path d="M84.832 0l-4.648 13.89L77.32 2.568C76.67 0 75.835 0 75.36 0c0 0-1.043 0-2.085.302L71.03 10.388l4.335 19.563h8.656L94.967 0H84.832z" fill="url(#a)"/><path d="M62.98 13.925L59.424 2.592C58.664.17 57.574 0 56.914 0c0 0-1.24 0-2.556.302v17.6l4.644 12.05h1.358l4.544-.303-1.924-15.725z" fill="url(#b)"/><path d="M75.36.002L67.5.004c-.586 0-2.14-.002-2.568 2.564L60.36 29.95h7.165L73.42 2.57C73.972 0 75.184.002 75.36.002z" fill="#FFF"/><path d="M27.758.302s-1.267-.3-2.533-.3H0l3.127 8.556h7.742V29.95h8.443V8.56h8.445V.302z" fill="url(#c)"/><path d="M48.87 0c-1.4 0-2.534 1.15-2.534 2.568v10.798l-9.108-11.67C36.398.59 35.066.007 33.865.007L25.225 0s2.11 0 2.11 2.57V29.95h8.445V13.634L47.272 28.36c.84 1.055 2.074 1.6 3.315 1.59h4.193V2.57C54.78 1.05 55.734 0 56.913 0H48.87z" fill="#FFF"/><g fill="#FFF"><path d="M5.126 42.787V37.36h-1.95v-1.222H8.53v1.222H6.57v5.427H5.127zM11.332 42.787v-6.65h1.446v2.58h2.58v-2.58h1.445v6.65h-1.445v-2.84h-2.58v2.84h-1.446zM20.084 42.787v-6.65h4.468v1.223H21.53v1.43h2.19v1.158h-2.19V41.6h3.182v1.187h-4.628zM31.947 42.787v-6.65h1.446l2.748 4.242h.02v-4.242h1.33v6.65h-1.33l-2.865-4.278h-.018v4.277h-1.33zM40.77 42.787v-6.65h4.468v1.223h-3.023v1.43h2.19v1.158h-2.19V41.6h3.183v1.187H40.77zM47.925 42.787l2.1-3.513-1.914-3.136h1.65l1.17 1.995 1.11-1.995h1.49l-1.872 3.145 2.128 3.504H52.18l-1.39-2.327-1.35 2.327h-1.515zM58.148 42.787V37.36h-1.95v-1.222h5.355v1.222h-1.96v5.427h-1.445zM69.932 42.787l-1.747-6.65h1.454l.69 3.03c.16.61.267 1.095.32 1.455h.018c.047-.335.148-.818.3-1.447l.666-3.037h1.33l.71 3.055c.177.76.28 1.237.31 1.43h.018c.035-.26.133-.73.293-1.412l.664-3.072h1.33l-1.712 6.65h-1.232l-1.038-4.628h-.017l-1.108 4.627h-1.25zM79.082 42.787v-6.65h4.47v1.223h-3.025v1.43h2.19v1.158h-2.19V41.6h3.184v1.187h-4.628zM86.628 42.787v-6.65h2.624c1.56 0 2.34.55 2.34 1.646 0 .443-.116.79-.35 1.042-.233.252-.533.413-.9.485v.018c.953.174 1.428.716 1.428 1.626 0 .624-.227 1.085-.682 1.384-.455.3-1.023.45-1.702.45h-2.758zm1.418-3.908h1.064c.733 0 1.1-.268 1.1-.8 0-.54-.36-.81-1.082-.81h-1.082v1.61zm0 2.793h1.162c.768 0 1.153-.297 1.153-.89 0-.58-.404-.87-1.214-.87h-1.1v1.76z"/></g></g></svg>